solid OpenSCAD_Model
  facet normal -8.65927e-017 -0.707107 0.707107
    outer loop
      vertex -51 -7.07107 9.89949
      vertex -51 -8.48528 8.48528
      vertex -16 -8.48528 8.48528
    endloop
  endfacet
  facet normal -8.65927e-017 -0.707107 0.707107
    outer loop
      vertex -16 -7.07107 9.89949
      vertex -51 -7.07107 9.89949
      vertex -16 -8.48528 8.48528
    endloop
  endfacet
  facet normal -8.65927e-017 -0.707107 -0.707107
    outer loop
      vertex -16 -8.48528 8.48528
      vertex -51 -8.48528 8.48528
      vertex -51 4.28612e-015 0
    endloop
  endfacet
  facet normal -8.65927e-017 -0.707107 -0.707107
    outer loop
      vertex -16.6285 -3.5345 3.5345
      vertex -16 -8.48528 8.48528
      vertex -51 4.28612e-015 0
    endloop
  endfacet
  facet normal -8.65927e-017 -0.707107 -0.707107
    outer loop
      vertex -17 1.22461e-016 0
      vertex -17 0 1.22461e-016
      vertex -51 4.28612e-015 0
    endloop
  endfacet
  facet normal -8.65927e-017 -0.707107 -0.707107
    outer loop
      vertex -17 0 1.22461e-016
      vertex -16.6285 -3.5345 3.5345
      vertex -51 4.28612e-015 0
    endloop
  endfacet
  facet normal -8.65927e-017 -0.707107 -0.707107
    outer loop
      vertex -16.6285 -3.5345 3.5345
      vertex -16 -5.46885 5.46885
      vertex -16 -8.48528 8.48528
    endloop
  endfacet
  facet normal -1 1.22461e-016 -8.97962e-034
    outer loop
      vertex -51 -8.48528 8.48528
      vertex -51 -7.07107 9.89949
      vertex -51 4.28612e-015 0
    endloop
  endfacet
  facet normal -1 1.22461e-016 -8.97962e-034
    outer loop
      vertex -51 4.28612e-015 0
      vertex -51 -7.07107 9.89949
      vertex -51 1.41421 1.41421
    endloop
  endfacet
  facet normal 8.65927e-017 0.707107 0.707107
    outer loop
      vertex -51 -7.07107 9.89949
      vertex -16 -7.07107 9.89949
      vertex -51 1.41421 1.41421
    endloop
  endfacet
  facet normal 8.65927e-017 0.707107 0.707107
    outer loop
      vertex -51 1.41421 1.41421
      vertex -16 -7.07107 9.89949
      vertex -16 -5.46885 8.29728
    endloop
  endfacet
  facet normal 8.65927e-017 0.707107 0.707107
    outer loop
      vertex -51 1.41421 1.41421
      vertex -16 -5.46885 8.29728
      vertex -16.6285 -3.5345 6.36293
    endloop
  endfacet
  facet normal 8.65927e-017 0.707107 0.707107
    outer loop
      vertex -51 1.41421 1.41421
      vertex -16.6285 -3.5345 6.36293
      vertex -17 0 2.82843
    endloop
  endfacet
  facet normal 8.65927e-017 0.707107 0.707107
    outer loop
      vertex -17 0 2.82843
      vertex -16.8514 1.41421 1.41421
      vertex -51 1.41421 1.41421
    endloop
  endfacet
  facet normal 1 -1.22461e-016 8.97962e-034
    outer loop
      vertex -16 -7.07107 9.89949
      vertex -16 -8.48528 8.48528
      vertex -16 -5.46885 5.46885
    endloop
  endfacet
  facet normal 1 -1.22461e-016 8.97962e-034
    outer loop
      vertex -16 -5.46885 8.29728
      vertex -16 -7.07107 9.89949
      vertex -16 -5.46885 5.46885
    endloop
  endfacet
  facet normal -0.951057 -0.309017 0
    outer loop
      vertex -16.6285 -3.5345 0
      vertex -15.5303 -6.91452 0
      vertex -16.6285 -3.5345 3.5345
    endloop
  endfacet
  facet normal -0.951057 -0.309017 0
    outer loop
      vertex -16 -5.46885 5.46885
      vertex -15.5303 -6.91452 0
      vertex -15.5303 -6.91452 10
    endloop
  endfacet
  facet normal -0.951057 -0.309017 0
    outer loop
      vertex -16.6285 -3.5345 6.36293
      vertex -15.5303 -6.91452 10
      vertex -16.6285 -3.5345 10
    endloop
  endfacet
  facet normal -0.951057 -0.309017 0
    outer loop
      vertex -16 -5.46885 8.29728
      vertex -15.5303 -6.91452 10
      vertex -16.6285 -3.5345 6.36293
    endloop
  endfacet
  facet normal -0.951057 -0.309017 0
    outer loop
      vertex -16.6285 -3.5345 3.5345
      vertex -15.5303 -6.91452 0
      vertex -16 -5.46885 5.46885
    endloop
  endfacet
  facet normal -0.951057 -0.309017 0
    outer loop
      vertex -16 -5.46885 5.46885
      vertex -15.5303 -6.91452 10
      vertex -16 -5.46885 8.29728
    endloop
  endfacet
  facet normal -0.994522 -0.104529 0
    outer loop
      vertex -17 0 0
      vertex -16.6285 -3.5345 0
      vertex -17 0 1.22461e-016
    endloop
  endfacet
  facet normal -0.994522 -0.104529 0
    outer loop
      vertex -17 0 1.22461e-016
      vertex -16.6285 -3.5345 0
      vertex -16.6285 -3.5345 3.5345
    endloop
  endfacet
  facet normal -0.994522 0.104529 0
    outer loop
      vertex -17 1.22461e-016 0
      vertex -17 0 0
      vertex -17 0 1.22461e-016
    endloop
  endfacet
  facet normal 0 0 -1
    outer loop
      vertex -17 0 0
      vertex -17 1.22461e-016 0
      vertex -16.6285 -3.5345 0
    endloop
  endfacet
  facet normal 0 0 -1
    outer loop
      vertex -16.6285 -3.5345 0
      vertex -17 1.22461e-016 0
      vertex -16.6285 3.5345 0
    endloop
  endfacet
  facet normal 0 0 -1
    outer loop
      vertex -16.6285 -3.5345 0
      vertex -16.6285 3.5345 0
      vertex -15.5303 6.91452 0
    endloop
  endfacet
  facet normal 0 0 -1
    outer loop
      vertex -16.6285 -3.5345 0
      vertex -15.5303 6.91452 0
      vertex -13.7533 9.99235 0
    endloop
  endfacet
  facet normal 0 0 -1
    outer loop
      vertex -16.6285 -3.5345 0
      vertex -13.7533 9.99235 0
      vertex -11.3752 12.6335 0
    endloop
  endfacet
  facet normal 0 0 -1
    outer loop
      vertex -16.6285 -3.5345 0
      vertex -11.3752 12.6335 0
      vertex -8.5 14.7224 0
    endloop
  endfacet
  facet normal 0 0 -1
    outer loop
      vertex -16.6285 -3.5345 0
      vertex -8.5 14.7224 0
      vertex -5.25329 16.168 0
    endloop
  endfacet
  facet normal 0 0 -1
    outer loop
      vertex -16.6285 -3.5345 0
      vertex -5.25329 16.168 0
      vertex -1.77698 16.9069 0
    endloop
  endfacet
  facet normal 0 0 -1
    outer loop
      vertex -16.6285 -3.5345 0
      vertex -1.77698 16.9069 0
      vertex 1.63432e-015 16.9069 0
    endloop
  endfacet
  facet normal 0 0 -1
    outer loop
      vertex -16.6285 -3.5345 0
      vertex 1.63432e-015 16.9069 0
      vertex 1.77698 16.9069 0
    endloop
  endfacet
  facet normal 0 0 -1
    outer loop
      vertex -16.6285 -3.5345 0
      vertex 1.77698 16.9069 0
      vertex 5.25329 16.168 0
    endloop
  endfacet
  facet normal 0 0 -1
    outer loop
      vertex -16.6285 -3.5345 0
      vertex 5.25329 16.168 0
      vertex 8.5 14.7224 0
    endloop
  endfacet
  facet normal 0 0 -1
    outer loop
      vertex -16.6285 -3.5345 0
      vertex 8.5 14.7224 0
      vertex 11.3752 12.6335 0
    endloop
  endfacet
  facet normal 0 0 -1
    outer loop
      vertex -16.6285 -3.5345 0
      vertex 11.3752 12.6335 0
      vertex 13.7533 9.99235 0
    endloop
  endfacet
  facet normal 0 0 -1
    outer loop
      vertex -16.6285 -3.5345 0
      vertex 13.7533 9.99235 0
      vertex 15.5303 6.91452 0
    endloop
  endfacet
  facet normal 0 0 -1
    outer loop
      vertex 0.37082 1.14127 0
      vertex 15.5303 6.91452 0
      vertex 16.6285 3.5345 0
    endloop
  endfacet
  facet normal 0 0 -1
    outer loop
      vertex -16.6285 -3.5345 0
      vertex 17 0 0
      vertex 16.6285 -3.5345 0
    endloop
  endfacet
  facet normal 0 0 -1
    outer loop
      vertex -16.6285 -3.5345 0
      vertex 16.6285 -3.5345 0
      vertex 15.5303 -6.91452 0
    endloop
  endfacet
  facet normal 0 0 -1
    outer loop
      vertex -16.6285 -3.5345 0
      vertex 15.5303 -6.91452 0
      vertex 13.7533 -9.99235 0
    endloop
  endfacet
  facet normal 0 0 -1
    outer loop
      vertex -16.6285 -3.5345 0
      vertex 13.7533 -9.99235 0
      vertex 11.3752 -12.6335 0
    endloop
  endfacet
  facet normal 0 0 -1
    outer loop
      vertex -16.6285 -3.5345 0
      vertex 11.3752 -12.6335 0
      vertex 8.5 -14.7224 0
    endloop
  endfacet
  facet normal 0 0 -1
    outer loop
      vertex -16.6285 -3.5345 0
      vertex 8.5 -14.7224 0
      vertex 5.25329 -16.168 0
    endloop
  endfacet
  facet normal 0 0 -1
    outer loop
      vertex -16.6285 -3.5345 0
      vertex 5.25329 -16.168 0
      vertex 1.77698 -16.9069 0
    endloop
  endfacet
  facet normal 0 0 -1
    outer loop
      vertex -16.6285 -3.5345 0
      vertex 1.77698 -16.9069 0
      vertex 0 -16.9069 0
    endloop
  endfacet
  facet normal 0 0 -1
    outer loop
      vertex -16.6285 -3.5345 0
      vertex 0 -16.9069 0
      vertex -1.77698 -16.9069 0
    endloop
  endfacet
  facet normal 0 0 -1
    outer loop
      vertex -16.6285 -3.5345 0
      vertex -1.77698 -16.9069 0
      vertex -5.25329 -16.168 0
    endloop
  endfacet
  facet normal 0 0 -1
    outer loop
      vertex -16.6285 -3.5345 0
      vertex -5.25329 -16.168 0
      vertex -8.5 -14.7224 0
    endloop
  endfacet
  facet normal 0 0 -1
    outer loop
      vertex -16.6285 -3.5345 0
      vertex -8.5 -14.7224 0
      vertex -11.3752 -12.6335 0
    endloop
  endfacet
  facet normal 0 0 -1
    outer loop
      vertex -16.6285 -3.5345 0
      vertex -11.3752 -12.6335 0
      vertex -13.7533 -9.99235 0
    endloop
  endfacet
  facet normal 0 0 -1
    outer loop
      vertex -16.6285 -3.5345 0
      vertex -13.7533 -9.99235 0
      vertex -15.5303 -6.91452 0
    endloop
  endfacet
  facet normal 0 0 -1
    outer loop
      vertex -16.6285 -3.5345 0
      vertex 15.5303 6.91452 0
      vertex -0.97082 0.705342 0
    endloop
  endfacet
  facet normal 0 0 -1
    outer loop
      vertex 0.37082 1.14127 0
      vertex 16.6285 3.5345 0
      vertex 1.2 0 0
    endloop
  endfacet
  facet normal 0 0 -1
    outer loop
      vertex -16.6285 -3.5345 0
      vertex -0.97082 -0.705342 0
      vertex 0.37082 -1.14127 0
    endloop
  endfacet
  facet normal 0 0 -1
    outer loop
      vertex -16.6285 -3.5345 0
      vertex 0.37082 -1.14127 0
      vertex 17 0 0
    endloop
  endfacet
  facet normal 0 0 -1
    outer loop
      vertex 1.2 0 0
      vertex 17 0 0
      vertex 0.37082 -1.14127 0
    endloop
  endfacet
  facet normal 0 0 -1
    outer loop
      vertex 1.2 0 0
      vertex 16.6285 3.5345 0
      vertex 17 0 0
    endloop
  endfacet
  facet normal 0 0 -1
    outer loop
      vertex -0.97082 0.705342 0
      vertex 15.5303 6.91452 0
      vertex 0.37082 1.14127 0
    endloop
  endfacet
  facet normal 0 0 -1
    outer loop
      vertex -0.97082 -0.705342 0
      vertex -16.6285 -3.5345 0
      vertex -0.97082 0.705342 0
    endloop
  endfacet
  facet normal -0.994522 0.104529 0
    outer loop
      vertex -17 0 2.82843
      vertex -17 0 10
      vertex -16.8514 1.41421 1.41421
    endloop
  endfacet
  facet normal -0.994522 0.104529 0
    outer loop
      vertex -16.8514 1.41421 1.41421
      vertex -17 0 10
      vertex -16.6285 3.5345 10
    endloop
  endfacet
  facet normal -0.994522 0.104529 0
    outer loop
      vertex -16.8514 1.41421 1.41421
      vertex -16.6285 3.5345 10
      vertex -16.6285 3.5345 0
    endloop
  endfacet
  facet normal -0.994522 0.104529 0
    outer loop
      vertex -16.8514 1.41421 1.41421
      vertex -16.6285 3.5345 0
      vertex -17 1.22461e-016 0
    endloop
  endfacet
  facet normal 8.65927e-017 0.707107 -0.707107
    outer loop
      vertex -51 4.28612e-015 0
      vertex -51 1.41421 1.41421
      vertex -17 1.22461e-016 0
    endloop
  endfacet
  facet normal 8.65927e-017 0.707107 -0.707107
    outer loop
      vertex -17 1.22461e-016 0
      vertex -51 1.41421 1.41421
      vertex -16.8514 1.41421 1.41421
    endloop
  endfacet
  facet normal -0.994522 -0.104529 0
    outer loop
      vertex -17 0 2.82843
      vertex -16.6285 -3.5345 6.36293
      vertex -17 0 10
    endloop
  endfacet
  facet normal -0.994522 -0.104529 0
    outer loop
      vertex -17 0 10
      vertex -16.6285 -3.5345 6.36293
      vertex -16.6285 -3.5345 10
    endloop
  endfacet
  facet normal 0 0 1
    outer loop
      vertex -16.6285 3.5345 10
      vertex -17 0 10
      vertex -16.6285 -3.5345 10
    endloop
  endfacet
  facet normal 0 0 1
    outer loop
      vertex -13.7533 -9.99235 10
      vertex -16.6285 3.5345 10
      vertex -15.5303 -6.91452 10
    endloop
  endfacet
  facet normal 0 0 1
    outer loop
      vertex -15.5303 -6.91452 10
      vertex -16.6285 3.5345 10
      vertex -16.6285 -3.5345 10
    endloop
  endfacet
  facet normal 0 0 1
    outer loop
      vertex -11.3752 -12.6335 10
      vertex -16.6285 3.5345 10
      vertex -13.7533 -9.99235 10
    endloop
  endfacet
  facet normal 0 0 1
    outer loop
      vertex -8.5 -14.7224 10
      vertex -16.6285 3.5345 10
      vertex -11.3752 -12.6335 10
    endloop
  endfacet
  facet normal 0 0 1
    outer loop
      vertex -5.25329 -16.168 10
      vertex -16.6285 3.5345 10
      vertex -8.5 -14.7224 10
    endloop
  endfacet
  facet normal 0 0 1
    outer loop
      vertex -1.77698 -16.9069 10
      vertex -16.6285 3.5345 10
      vertex -5.25329 -16.168 10
    endloop
  endfacet
  facet normal 0 0 1
    outer loop
      vertex 1.77698 -16.9069 10
      vertex -16.6285 3.5345 10
      vertex -1.77698 -16.9069 10
    endloop
  endfacet
  facet normal 0 0 1
    outer loop
      vertex 5.25329 -16.168 10
      vertex -16.6285 3.5345 10
      vertex 1.77698 -16.9069 10
    endloop
  endfacet
  facet normal 0 0 1
    outer loop
      vertex 8.5 -14.7224 10
      vertex -16.6285 3.5345 10
      vertex 5.25329 -16.168 10
    endloop
  endfacet
  facet normal 0 0 1
    outer loop
      vertex 11.3752 -12.6335 10
      vertex -16.6285 3.5345 10
      vertex 8.5 -14.7224 10
    endloop
  endfacet
  facet normal 0 0 1
    outer loop
      vertex 13.7533 -9.99235 10
      vertex -16.6285 3.5345 10
      vertex 11.3752 -12.6335 10
    endloop
  endfacet
  facet normal 0 0 1
    outer loop
      vertex 15.5303 -6.91452 10
      vertex -16.6285 3.5345 10
      vertex 13.7533 -9.99235 10
    endloop
  endfacet
  facet normal 0 0 1
    outer loop
      vertex 16.6285 -3.5345 10
      vertex -16.6285 3.5345 10
      vertex 15.5303 -6.91452 10
    endloop
  endfacet
  facet normal 0 0 1
    outer loop
      vertex 17 0 10
      vertex -16.6285 3.5345 10
      vertex 16.6285 -3.5345 10
    endloop
  endfacet
  facet normal 0 0 1
    outer loop
      vertex 16.6285 3.5345 10
      vertex -16.6285 3.5345 10
      vertex 17 0 10
    endloop
  endfacet
  facet normal 0 0 1
    outer loop
      vertex 15.5303 6.91452 10
      vertex -16.6285 3.5345 10
      vertex 16.6285 3.5345 10
    endloop
  endfacet
  facet normal 0 0 1
    outer loop
      vertex 13.7533 9.99235 10
      vertex -16.6285 3.5345 10
      vertex 15.5303 6.91452 10
    endloop
  endfacet
  facet normal 0 0 1
    outer loop
      vertex 11.3752 12.6335 10
      vertex -16.6285 3.5345 10
      vertex 13.7533 9.99235 10
    endloop
  endfacet
  facet normal 0 0 1
    outer loop
      vertex 8.5 14.7224 10
      vertex -16.6285 3.5345 10
      vertex 11.3752 12.6335 10
    endloop
  endfacet
  facet normal 0 0 1
    outer loop
      vertex 5.25329 16.168 10
      vertex -16.6285 3.5345 10
      vertex 8.5 14.7224 10
    endloop
  endfacet
  facet normal 0 0 1
    outer loop
      vertex 1.77698 16.9069 10
      vertex -16.6285 3.5345 10
      vertex 5.25329 16.168 10
    endloop
  endfacet
  facet normal 0 0 1
    outer loop
      vertex -1.77698 16.9069 10
      vertex -16.6285 3.5345 10
      vertex 1.77698 16.9069 10
    endloop
  endfacet
  facet normal 0 0 1
    outer loop
      vertex -5.25329 16.168 10
      vertex -16.6285 3.5345 10
      vertex -1.77698 16.9069 10
    endloop
  endfacet
  facet normal 0 0 1
    outer loop
      vertex -8.5 14.7224 10
      vertex -16.6285 3.5345 10
      vertex -5.25329 16.168 10
    endloop
  endfacet
  facet normal 0 0 1
    outer loop
      vertex -11.3752 12.6335 10
      vertex -16.6285 3.5345 10
      vertex -8.5 14.7224 10
    endloop
  endfacet
  facet normal 0 0 1
    outer loop
      vertex -13.7533 9.99235 10
      vertex -16.6285 3.5345 10
      vertex -11.3752 12.6335 10
    endloop
  endfacet
  facet normal 0 0 1
    outer loop
      vertex -15.5303 6.91452 10
      vertex -16.6285 3.5345 10
      vertex -13.7533 9.99235 10
    endloop
  endfacet
  facet normal -0.866025 -0.5 0
    outer loop
      vertex -15.5303 -6.91452 0
      vertex -13.7533 -9.99235 0
      vertex -15.5303 -6.91452 10
    endloop
  endfacet
  facet normal -0.866025 -0.5 0
    outer loop
      vertex -15.5303 -6.91452 10
      vertex -13.7533 -9.99235 0
      vertex -13.7533 -9.99235 10
    endloop
  endfacet
  facet normal -0.743145 -0.669131 0
    outer loop
      vertex -13.7533 -9.99235 0
      vertex -11.3752 -12.6335 0
      vertex -13.7533 -9.99235 10
    endloop
  endfacet
  facet normal -0.743145 -0.669131 0
    outer loop
      vertex -13.7533 -9.99235 10
      vertex -11.3752 -12.6335 0
      vertex -11.3752 -12.6335 10
    endloop
  endfacet
  facet normal -0.587785 -0.809017 0
    outer loop
      vertex -11.3752 -12.6335 10
      vertex -11.3752 -12.6335 0
      vertex -8.5 -14.7224 0
    endloop
  endfacet
  facet normal -0.587785 -0.809017 0
    outer loop
      vertex -8.5 -14.7224 10
      vertex -11.3752 -12.6335 10
      vertex -8.5 -14.7224 0
    endloop
  endfacet
  facet normal -0.406737 -0.913545 0
    outer loop
      vertex -8.5 -14.7224 10
      vertex -8.5 -14.7224 0
      vertex -5.25329 -16.168 0
    endloop
  endfacet
  facet normal -0.406737 -0.913545 0
    outer loop
      vertex -5.25329 -16.168 10
      vertex -8.5 -14.7224 10
      vertex -5.25329 -16.168 0
    endloop
  endfacet
  facet normal -0.207912 -0.978148 0
    outer loop
      vertex -5.25329 -16.168 10
      vertex -5.25329 -16.168 0
      vertex -1.77698 -16.9069 0
    endloop
  endfacet
  facet normal -0.207912 -0.978148 0
    outer loop
      vertex -1.77698 -16.9069 10
      vertex -5.25329 -16.168 10
      vertex -1.77698 -16.9069 0
    endloop
  endfacet
  facet normal 0 -1 0
    outer loop
      vertex -1.41421 -16.9069 1.41421
      vertex -1.77698 -16.9069 0
      vertex 0 -16.9069 0
    endloop
  endfacet
  facet normal 0 -1 0
    outer loop
      vertex -1.77698 -16.9069 10
      vertex -1.77698 -16.9069 0
      vertex -1.41421 -16.9069 1.41421
    endloop
  endfacet
  facet normal 0 -1 0
    outer loop
      vertex 1.77698 -16.9069 10
      vertex -1.77698 -16.9069 10
      vertex 1.77698 -16.9069 4.60541
    endloop
  endfacet
  facet normal 0 -1 0
    outer loop
      vertex -1.41421 -16.9069 1.41421
      vertex 1.77698 -16.9069 4.60541
      vertex -1.77698 -16.9069 10
    endloop
  endfacet
  facet normal -0.707107 0 -0.707107
    outer loop
      vertex -1.41421 -51 1.41421
      vertex -1.41421 -16.9069 1.41421
      vertex 0 -51 0
    endloop
  endfacet
  facet normal -0.707107 0 -0.707107
    outer loop
      vertex 0 -51 0
      vertex -1.41421 -16.9069 1.41421
      vertex 0 -16.9069 0
    endloop
  endfacet
  facet normal 0.707107 0 -0.707107
    outer loop
      vertex 8.48528 -51 8.48528
      vertex 0 -51 0
      vertex 0 -16.9069 0
    endloop
  endfacet
  facet normal 0.707107 0 -0.707107
    outer loop
      vertex 5.25329 -16.168 5.25329
      vertex 8.48528 -51 8.48528
      vertex 1.77698 -16.9069 1.77698
    endloop
  endfacet
  facet normal 0.707107 0 -0.707107
    outer loop
      vertex 1.77698 -16.9069 1.77698
      vertex 8.48528 -51 8.48528
      vertex 0 -16.9069 0
    endloop
  endfacet
  facet normal 0.707107 0 -0.707107
    outer loop
      vertex 5.63054 -16 5.63054
      vertex 8.48528 -51 8.48528
      vertex 5.25329 -16.168 5.25329
    endloop
  endfacet
  facet normal 0.707107 0 -0.707107
    outer loop
      vertex 8.48528 -16 8.48528
      vertex 8.48528 -51 8.48528
      vertex 5.63054 -16 5.63054
    endloop
  endfacet
  facet normal 0 -1 0
    outer loop
      vertex 1.77698 -16.9069 1.77698
      vertex 0 -16.9069 0
      vertex 1.77698 -16.9069 0
    endloop
  endfacet
  facet normal 0.207912 -0.978148 0
    outer loop
      vertex 1.77698 -16.9069 1.77698
      vertex 1.77698 -16.9069 0
      vertex 5.25329 -16.168 0
    endloop
  endfacet
  facet normal 0.207912 -0.978148 0
    outer loop
      vertex 5.25329 -16.168 5.25329
      vertex 1.77698 -16.9069 1.77698
      vertex 5.25329 -16.168 0
    endloop
  endfacet
  facet normal 0.406737 -0.913545 0
    outer loop
      vertex 5.25329 -16.168 5.25329
      vertex 5.25329 -16.168 0
      vertex 8.5 -14.7224 0
    endloop
  endfacet
  facet normal 0.406737 -0.913545 0
    outer loop
      vertex 5.63054 -16 5.63054
      vertex 5.25329 -16.168 5.25329
      vertex 8.5 -14.7224 0
    endloop
  endfacet
  facet normal 0.406737 -0.913545 0
    outer loop
      vertex 5.25329 -16.168 10
      vertex 5.63054 -16 8.45896
      vertex 8.5 -14.7224 10
    endloop
  endfacet
  facet normal 0.406737 -0.913545 0
    outer loop
      vertex 5.25329 -16.168 10
      vertex 5.25329 -16.168 8.08172
      vertex 5.63054 -16 8.45896
    endloop
  endfacet
  facet normal 0.406737 -0.913545 0
    outer loop
      vertex 8.5 -14.7224 10
      vertex 5.63054 -16 5.63054
      vertex 8.5 -14.7224 0
    endloop
  endfacet
  facet normal 0.406737 -0.913545 0
    outer loop
      vertex 5.63054 -16 8.45896
      vertex 5.63054 -16 5.63054
      vertex 8.5 -14.7224 10
    endloop
  endfacet
  facet normal 0.587785 -0.809017 0
    outer loop
      vertex 8.5 -14.7224 10
      vertex 8.5 -14.7224 0
      vertex 11.3752 -12.6335 0
    endloop
  endfacet
  facet normal 0.587785 -0.809017 0
    outer loop
      vertex 11.3752 -12.6335 10
      vertex 8.5 -14.7224 10
      vertex 11.3752 -12.6335 0
    endloop
  endfacet
  facet normal 0.743145 -0.669131 0
    outer loop
      vertex 11.3752 -12.6335 10
      vertex 11.3752 -12.6335 0
      vertex 13.7533 -9.99235 0
    endloop
  endfacet
  facet normal 0.743145 -0.669131 0
    outer loop
      vertex 13.7533 -9.99235 10
      vertex 11.3752 -12.6335 10
      vertex 13.7533 -9.99235 0
    endloop
  endfacet
  facet normal 0.866025 -0.5 0
    outer loop
      vertex 13.7533 -9.99235 10
      vertex 13.7533 -9.99235 0
      vertex 15.5303 -6.91452 0
    endloop
  endfacet
  facet normal 0.866025 -0.5 0
    outer loop
      vertex 15.5303 -6.91452 10
      vertex 13.7533 -9.99235 10
      vertex 15.5303 -6.91452 0
    endloop
  endfacet
  facet normal 0.951057 -0.309017 0
    outer loop
      vertex 15.5303 -6.91452 10
      vertex 15.5303 -6.91452 0
      vertex 16.6285 -3.5345 0
    endloop
  endfacet
  facet normal 0.951057 -0.309017 0
    outer loop
      vertex 16.6285 -3.5345 10
      vertex 15.5303 -6.91452 10
      vertex 16.6285 -3.5345 0
    endloop
  endfacet
  facet normal 0.994522 -0.104529 0
    outer loop
      vertex 16.8514 -1.41421 1.41421
      vertex 16.6285 -3.5345 0
      vertex 17 0 0
    endloop
  endfacet
  facet normal 0.994522 -0.104529 0
    outer loop
      vertex 16.6285 -3.5345 10
      vertex 16.6285 -3.5345 0
      vertex 16.8514 -1.41421 1.41421
    endloop
  endfacet
  facet normal 0.994522 -0.104529 0
    outer loop
      vertex 17 0 10
      vertex 16.6285 -3.5345 10
      vertex 17 0 2.82843
    endloop
  endfacet
  facet normal 0.994522 -0.104529 0
    outer loop
      vertex 16.8514 -1.41421 1.41421
      vertex 17 0 2.82843
      vertex 16.6285 -3.5345 10
    endloop
  endfacet
  facet normal 0 -0.707107 -0.707107
    outer loop
      vertex 16.8514 -1.41421 1.41421
      vertex 17 0 0
      vertex 51 -1.41421 1.41421
    endloop
  endfacet
  facet normal 0 -0.707107 -0.707107
    outer loop
      vertex 51 -1.41421 1.41421
      vertex 17 0 0
      vertex 51 0 0
    endloop
  endfacet
  facet normal 0 0.707107 -0.707107
    outer loop
      vertex 16 5.46885 5.46885
      vertex 16 8.48528 8.48528
      vertex 16.6285 3.5345 3.5345
    endloop
  endfacet
  facet normal 0 0.707107 -0.707107
    outer loop
      vertex 16.6285 3.5345 3.5345
      vertex 16 8.48528 8.48528
      vertex 51 8.48528 8.48528
    endloop
  endfacet
  facet normal 0 0.707107 -0.707107
    outer loop
      vertex 16.6285 3.5345 3.5345
      vertex 51 8.48528 8.48528
      vertex 51 0 0
    endloop
  endfacet
  facet normal 0 0.707107 -0.707107
    outer loop
      vertex 16.6285 3.5345 3.5345
      vertex 51 0 0
      vertex 17 0 0
    endloop
  endfacet
  facet normal 0.994522 0.104529 0
    outer loop
      vertex 17 0 0
      vertex 16.6285 3.5345 0
      vertex 16.6285 3.5345 3.5345
    endloop
  endfacet
  facet normal 0.951057 0.309017 0
    outer loop
      vertex 16 5.46885 5.46885
      vertex 15.5303 6.91452 0
      vertex 15.5303 6.91452 10
    endloop
  endfacet
  facet normal 0.951057 0.309017 0
    outer loop
      vertex 16 5.46885 5.46885
      vertex 16.6285 3.5345 3.5345
      vertex 16.6285 3.5345 0
    endloop
  endfacet
  facet normal 0.951057 0.309017 0
    outer loop
      vertex 16.6285 3.5345 10
      vertex 16.6285 3.5345 6.36293
      vertex 15.5303 6.91452 10
    endloop
  endfacet
  facet normal 0.951057 0.309017 0
    outer loop
      vertex 16.6285 3.5345 6.36293
      vertex 16 5.46885 8.29728
      vertex 15.5303 6.91452 10
    endloop
  endfacet
  facet normal 0.951057 0.309017 0
    outer loop
      vertex 16.6285 3.5345 0
      vertex 15.5303 6.91452 0
      vertex 16 5.46885 5.46885
    endloop
  endfacet
  facet normal 0.951057 0.309017 0
    outer loop
      vertex 16 5.46885 8.29728
      vertex 16 5.46885 5.46885
      vertex 15.5303 6.91452 10
    endloop
  endfacet
  facet normal 0.866025 0.5 0
    outer loop
      vertex 15.5303 6.91452 0
      vertex 13.7533 9.99235 0
      vertex 13.7533 9.99235 10
    endloop
  endfacet
  facet normal 0.866025 0.5 0
    outer loop
      vertex 15.5303 6.91452 10
      vertex 15.5303 6.91452 0
      vertex 13.7533 9.99235 10
    endloop
  endfacet
  facet normal 0.743145 0.669131 0
    outer loop
      vertex 13.7533 9.99235 0
      vertex 11.3752 12.6335 0
      vertex 11.3752 12.6335 10
    endloop
  endfacet
  facet normal 0.743145 0.669131 0
    outer loop
      vertex 13.7533 9.99235 10
      vertex 13.7533 9.99235 0
      vertex 11.3752 12.6335 10
    endloop
  endfacet
  facet normal 0.587785 0.809017 0
    outer loop
      vertex 8.5 14.7224 0
      vertex 8.5 14.7224 10
      vertex 11.3752 12.6335 0
    endloop
  endfacet
  facet normal 0.587785 0.809017 0
    outer loop
      vertex 11.3752 12.6335 0
      vertex 8.5 14.7224 10
      vertex 11.3752 12.6335 10
    endloop
  endfacet
  facet normal 0.406737 0.913545 0
    outer loop
      vertex 5.25329 16.168 0
      vertex 5.25329 16.168 10
      vertex 8.5 14.7224 0
    endloop
  endfacet
  facet normal 0.406737 0.913545 0
    outer loop
      vertex 8.5 14.7224 0
      vertex 5.25329 16.168 10
      vertex 8.5 14.7224 10
    endloop
  endfacet
  facet normal 0.207912 0.978148 0
    outer loop
      vertex 1.77698 16.9069 0
      vertex 1.77698 16.9069 10
      vertex 5.25329 16.168 0
    endloop
  endfacet
  facet normal 0.207912 0.978148 0
    outer loop
      vertex 5.25329 16.168 0
      vertex 1.77698 16.9069 10
      vertex 5.25329 16.168 10
    endloop
  endfacet
  facet normal 0 1 0
    outer loop
      vertex -1.77698 16.9069 4.60541
      vertex -1.77698 16.9069 10
      vertex 1.41421 16.9069 1.41421
    endloop
  endfacet
  facet normal 0 1 0
    outer loop
      vertex 1.41421 16.9069 1.41421
      vertex -1.77698 16.9069 10
      vertex 1.77698 16.9069 10
    endloop
  endfacet
  facet normal 0 1 0
    outer loop
      vertex 1.41421 16.9069 1.41421
      vertex 1.77698 16.9069 10
      vertex 1.77698 16.9069 0
    endloop
  endfacet
  facet normal 0 1 0
    outer loop
      vertex 1.41421 16.9069 1.41421
      vertex 1.77698 16.9069 0
      vertex 1.63432e-015 16.9069 0
    endloop
  endfacet
  facet normal 0.707107 -2.35514e-016 -0.707107
    outer loop
      vertex 1.41421 16.9069 1.41421
      vertex 1.63432e-015 16.9069 0
      vertex 1.16573e-014 47 0
    endloop
  endfacet
  facet normal 0.707107 -2.35514e-016 -0.707107
    outer loop
      vertex 1.41421 47 1.41421
      vertex 1.41421 16.9069 1.41421
      vertex 1.16573e-014 47 0
    endloop
  endfacet
  facet normal -0.707107 2.35514e-016 -0.707107
    outer loop
      vertex -8.48528 14.729 8.48528
      vertex -8.48528 47 8.48528
      vertex -5.25329 16.168 5.25329
    endloop
  endfacet
  facet normal -0.707107 2.35514e-016 -0.707107
    outer loop
      vertex -5.25329 16.168 5.25329
      vertex -8.48528 47 8.48528
      vertex 1.16573e-014 47 0
    endloop
  endfacet
  facet normal -0.707107 2.35514e-016 -0.707107
    outer loop
      vertex -1.77698 16.9069 1.77698
      vertex 1.16573e-014 47 0
      vertex 1.63432e-015 16.9069 0
    endloop
  endfacet
  facet normal -0.707107 2.35514e-016 -0.707107
    outer loop
      vertex -5.25329 16.168 5.25329
      vertex 1.16573e-014 47 0
      vertex -1.77698 16.9069 1.77698
    endloop
  endfacet
  facet normal 0 1 0
    outer loop
      vertex 1.63432e-015 16.9069 0
      vertex -1.77698 16.9069 0
      vertex -1.77698 16.9069 1.77698
    endloop
  endfacet
  facet normal -0.207912 0.978148 0
    outer loop
      vertex -5.25329 16.168 0
      vertex -5.25329 16.168 5.25329
      vertex -1.77698 16.9069 0
    endloop
  endfacet
  facet normal -0.207912 0.978148 0
    outer loop
      vertex -1.77698 16.9069 0
      vertex -5.25329 16.168 5.25329
      vertex -1.77698 16.9069 1.77698
    endloop
  endfacet
  facet normal -0.406737 0.913545 0
    outer loop
      vertex -5.25329 16.168 5.25329
      vertex -5.25329 16.168 0
      vertex -8.48528 14.729 8.48528
    endloop
  endfacet
  facet normal -0.406737 0.913545 0
    outer loop
      vertex -7.07107 15.3586 9.89949
      vertex -8.5 14.7224 10
      vertex -5.25329 16.168 10
    endloop
  endfacet
  facet normal -0.406737 0.913545 0
    outer loop
      vertex -5.25329 16.168 8.08172
      vertex -7.07107 15.3586 9.89949
      vertex -5.25329 16.168 10
    endloop
  endfacet
  facet normal -0.406737 0.913545 0
    outer loop
      vertex -8.5 14.7224 0
      vertex -8.5 14.7224 10
      vertex -8.48528 14.729 8.48528
    endloop
  endfacet
  facet normal -0.406737 0.913545 0
    outer loop
      vertex -8.5 14.7224 0
      vertex -8.48528 14.729 8.48528
      vertex -5.25329 16.168 0
    endloop
  endfacet
  facet normal -0.406737 0.913545 0
    outer loop
      vertex -8.48528 14.729 8.48528
      vertex -8.5 14.7224 10
      vertex -7.07107 15.3586 9.89949
    endloop
  endfacet
  facet normal -0.587785 0.809017 0
    outer loop
      vertex -11.3752 12.6335 0
      vertex -11.3752 12.6335 10
      vertex -8.5 14.7224 0
    endloop
  endfacet
  facet normal -0.587785 0.809017 0
    outer loop
      vertex -8.5 14.7224 0
      vertex -11.3752 12.6335 10
      vertex -8.5 14.7224 10
    endloop
  endfacet
  facet normal -0.743145 0.669131 0
    outer loop
      vertex -13.7533 9.99235 0
      vertex -13.7533 9.99235 10
      vertex -11.3752 12.6335 0
    endloop
  endfacet
  facet normal -0.743145 0.669131 0
    outer loop
      vertex -11.3752 12.6335 0
      vertex -13.7533 9.99235 10
      vertex -11.3752 12.6335 10
    endloop
  endfacet
  facet normal -0.866025 0.5 0
    outer loop
      vertex -15.5303 6.91452 0
      vertex -15.5303 6.91452 10
      vertex -13.7533 9.99235 0
    endloop
  endfacet
  facet normal -0.866025 0.5 0
    outer loop
      vertex -13.7533 9.99235 0
      vertex -15.5303 6.91452 10
      vertex -13.7533 9.99235 10
    endloop
  endfacet
  facet normal -0.951057 0.309017 0
    outer loop
      vertex -16.6285 3.5345 0
      vertex -16.6285 3.5345 10
      vertex -15.5303 6.91452 0
    endloop
  endfacet
  facet normal -0.951057 0.309017 0
    outer loop
      vertex -15.5303 6.91452 0
      vertex -16.6285 3.5345 10
      vertex -15.5303 6.91452 10
    endloop
  endfacet
  facet normal 1 0 0
    outer loop
      vertex -0.97082 0.705342 0
      vertex -0.97082 0.705342 8.5
      vertex -0.97082 -0.705342 8.5
    endloop
  endfacet
  facet normal 1 0 0
    outer loop
      vertex -0.97082 -0.705342 0
      vertex -0.97082 0.705342 0
      vertex -0.97082 -0.705342 8.5
    endloop
  endfacet
  facet normal 0.309017 -0.951056 0
    outer loop
      vertex 0.37082 1.14127 0
      vertex 0.37082 1.14127 8.5
      vertex -0.97082 0.705342 8.5
    endloop
  endfacet
  facet normal 0.309017 -0.951056 0
    outer loop
      vertex -0.97082 0.705342 0
      vertex 0.37082 1.14127 0
      vertex -0.97082 0.705342 8.5
    endloop
  endfacet
  facet normal -0.809017 -0.587785 0
    outer loop
      vertex 1.2 0 8.5
      vertex 0.37082 1.14127 8.5
      vertex 1.2 0 0
    endloop
  endfacet
  facet normal -0.809017 -0.587785 0
    outer loop
      vertex 1.2 0 0
      vertex 0.37082 1.14127 8.5
      vertex 0.37082 1.14127 0
    endloop
  endfacet
  facet normal -0.809017 0.587785 0
    outer loop
      vertex 1.2 0 8.5
      vertex 1.2 0 0
      vertex 0.37082 -1.14127 8.5
    endloop
  endfacet
  facet normal -0.809017 0.587785 0
    outer loop
      vertex 0.37082 -1.14127 8.5
      vertex 1.2 0 0
      vertex 0.37082 -1.14127 0
    endloop
  endfacet
  facet normal 0.309017 0.951056 0
    outer loop
      vertex 0.37082 -1.14127 8.5
      vertex 0.37082 -1.14127 0
      vertex -0.97082 -0.705342 8.5
    endloop
  endfacet
  facet normal 0.309017 0.951056 0
    outer loop
      vertex -0.97082 -0.705342 8.5
      vertex 0.37082 -1.14127 0
      vertex -0.97082 -0.705342 0
    endloop
  endfacet
  facet normal -0.207912 0.978148 0
    outer loop
      vertex -5.25329 16.168 8.08172
      vertex -5.25329 16.168 10
      vertex -1.77698 16.9069 4.60541
    endloop
  endfacet
  facet normal -0.207912 0.978148 0
    outer loop
      vertex -1.77698 16.9069 4.60541
      vertex -5.25329 16.168 10
      vertex -1.77698 16.9069 10
    endloop
  endfacet
  facet normal 0.994522 0.104529 0
    outer loop
      vertex 17 0 2.82843
      vertex 16.6285 3.5345 6.36293
      vertex 16.6285 3.5345 10
    endloop
  endfacet
  facet normal 0.994522 0.104529 0
    outer loop
      vertex 17 0 10
      vertex 17 0 2.82843
      vertex 16.6285 3.5345 10
    endloop
  endfacet
  facet normal 0.207912 -0.978148 0
    outer loop
      vertex 1.77698 -16.9069 10
      vertex 1.77698 -16.9069 4.60541
      vertex 5.25329 -16.168 8.08172
    endloop
  endfacet
  facet normal 0.207912 -0.978148 0
    outer loop
      vertex 5.25329 -16.168 10
      vertex 1.77698 -16.9069 10
      vertex 5.25329 -16.168 8.08172
    endloop
  endfacet
  facet normal -0.707107 0 0.707107
    outer loop
      vertex -1.41421 -51 1.41421
      vertex 7.07107 -51 9.89949
      vertex -1.41421 -16.9069 1.41421
    endloop
  endfacet
  facet normal -0.707107 0 0.707107
    outer loop
      vertex 1.77698 -16.9069 4.60541
      vertex 7.07107 -51 9.89949
      vertex 7.07107 -16 9.89949
    endloop
  endfacet
  facet normal -0.707107 0 0.707107
    outer loop
      vertex 5.25329 -16.168 8.08172
      vertex 7.07107 -16 9.89949
      vertex 5.63054 -16 8.45896
    endloop
  endfacet
  facet normal -0.707107 0 0.707107
    outer loop
      vertex -1.41421 -16.9069 1.41421
      vertex 7.07107 -51 9.89949
      vertex 1.77698 -16.9069 4.60541
    endloop
  endfacet
  facet normal -0.707107 0 0.707107
    outer loop
      vertex 1.77698 -16.9069 4.60541
      vertex 7.07107 -16 9.89949
      vertex 5.25329 -16.168 8.08172
    endloop
  endfacet
  facet normal -7.85046e-017 -1 7.85046e-017
    outer loop
      vertex 7.07107 -51 9.89949
      vertex -1.41421 -51 1.41421
      vertex 0 -51 0
    endloop
  endfacet
  facet normal -7.85046e-017 -1 7.85046e-017
    outer loop
      vertex 8.48528 -51 8.48528
      vertex 7.07107 -51 9.89949
      vertex 0 -51 0
    endloop
  endfacet
  facet normal 0.707107 0 0.707107
    outer loop
      vertex 7.07107 -16 9.89949
      vertex 7.07107 -51 9.89949
      vertex 8.48528 -51 8.48528
    endloop
  endfacet
  facet normal 0.707107 0 0.707107
    outer loop
      vertex 8.48528 -16 8.48528
      vertex 7.07107 -16 9.89949
      vertex 8.48528 -51 8.48528
    endloop
  endfacet
  facet normal 7.85046e-017 1 -7.85046e-017
    outer loop
      vertex 5.63054 -16 5.63054
      vertex 5.63054 -16 8.45896
      vertex 8.48528 -16 8.48528
    endloop
  endfacet
  facet normal 7.85046e-017 1 -7.85046e-017
    outer loop
      vertex 8.48528 -16 8.48528
      vertex 5.63054 -16 8.45896
      vertex 7.07107 -16 9.89949
    endloop
  endfacet
  facet normal 0 -0.707107 0.707107
    outer loop
      vertex 17 0 2.82843
      vertex 51 -1.41421 1.41421
      vertex 16.6285 3.5345 6.36293
    endloop
  endfacet
  facet normal 0 -0.707107 0.707107
    outer loop
      vertex 16 7.07107 9.89949
      vertex 16 5.46885 8.29728
      vertex 16.6285 3.5345 6.36293
    endloop
  endfacet
  facet normal 0 -0.707107 0.707107
    outer loop
      vertex 51 -1.41421 1.41421
      vertex 16 7.07107 9.89949
      vertex 16.6285 3.5345 6.36293
    endloop
  endfacet
  facet normal 0 -0.707107 0.707107
    outer loop
      vertex 16.8514 -1.41421 1.41421
      vertex 51 -1.41421 1.41421
      vertex 17 0 2.82843
    endloop
  endfacet
  facet normal 0 -0.707107 0.707107
    outer loop
      vertex 51 -1.41421 1.41421
      vertex 51 7.07107 9.89949
      vertex 16 7.07107 9.89949
    endloop
  endfacet
  facet normal 1 0 0
    outer loop
      vertex 51 7.07107 9.89949
      vertex 51 -1.41421 1.41421
      vertex 51 0 0
    endloop
  endfacet
  facet normal 1 0 0
    outer loop
      vertex 51 8.48528 8.48528
      vertex 51 7.07107 9.89949
      vertex 51 0 0
    endloop
  endfacet
  facet normal 0 0.707107 0.707107
    outer loop
      vertex 16 8.48528 8.48528
      vertex 16 7.07107 9.89949
      vertex 51 7.07107 9.89949
    endloop
  endfacet
  facet normal 0 0.707107 0.707107
    outer loop
      vertex 51 8.48528 8.48528
      vertex 16 8.48528 8.48528
      vertex 51 7.07107 9.89949
    endloop
  endfacet
  facet normal -1 0 0
    outer loop
      vertex 16 5.46885 5.46885
      vertex 16 5.46885 8.29728
      vertex 16 8.48528 8.48528
    endloop
  endfacet
  facet normal -1 0 0
    outer loop
      vertex 16 8.48528 8.48528
      vertex 16 5.46885 8.29728
      vertex 16 7.07107 9.89949
    endloop
  endfacet
  facet normal 0.707107 -2.35514e-016 0.707107
    outer loop
      vertex -7.07107 47 9.89949
      vertex -7.07107 15.3586 9.89949
      vertex -5.25329 16.168 8.08172
    endloop
  endfacet
  facet normal 0.707107 -2.35514e-016 0.707107
    outer loop
      vertex -1.77698 16.9069 4.60541
      vertex -7.07107 47 9.89949
      vertex -5.25329 16.168 8.08172
    endloop
  endfacet
  facet normal 0.707107 -2.35514e-016 0.707107
    outer loop
      vertex -1.77698 16.9069 4.60541
      vertex 1.41421 16.9069 1.41421
      vertex -7.07107 47 9.89949
    endloop
  endfacet
  facet normal 0.707107 -2.35514e-016 0.707107
    outer loop
      vertex 1.41421 16.9069 1.41421
      vertex 1.41421 47 1.41421
      vertex -7.07107 47 9.89949
    endloop
  endfacet
  facet normal 2.35514e-016 1 -7.85046e-017
    outer loop
      vertex -8.48528 47 8.48528
      vertex -7.07107 47 9.89949
      vertex 1.16573e-014 47 0
    endloop
  endfacet
  facet normal 2.35514e-016 1 -7.85046e-017
    outer loop
      vertex 1.16573e-014 47 0
      vertex -7.07107 47 9.89949
      vertex 1.41421 47 1.41421
    endloop
  endfacet
  facet normal -0.707107 2.35514e-016 0.707107
    outer loop
      vertex -8.48528 14.729 8.48528
      vertex -7.07107 15.3586 9.89949
      vertex -8.48528 47 8.48528
    endloop
  endfacet
  facet normal -0.707107 2.35514e-016 0.707107
    outer loop
      vertex -8.48528 47 8.48528
      vertex -7.07107 15.3586 9.89949
      vertex -7.07107 47 9.89949
    endloop
  endfacet
  facet normal 0 0 -1
    outer loop
      vertex 0.37082 1.14127 8.5
      vertex 1.2 0 8.5
      vertex -0.97082 0.705342 8.5
    endloop
  endfacet
  facet normal 0 0 -1
    outer loop
      vertex -0.97082 0.705342 8.5
      vertex 1.2 0 8.5
      vertex 0.37082 -1.14127 8.5
    endloop
  endfacet
  facet normal 0 0 -1
    outer loop
      vertex -0.97082 0.705342 8.5
      vertex 0.37082 -1.14127 8.5
      vertex -0.97082 -0.705342 8.5
    endloop
  endfacet
endsolid OpenSCAD_Model
